{"title":"Miss Dial 2013 WEBRip XviD juggs","uid":8264562,"size":738514985,"categoryP":"video","categoryS":"movies","magnet":"?xt=urn:btih:6d867731c6516337fce3e70c2bb273e2f78944b1&amp;dn=Miss+Dial+2013+WEBRip+XviD+juggs&amp;tr=udp%3A%2F%2Ftracker.openbittorrent.com%3A80&amp;tr=udp%3A%2F%2Fopen.demonii.com%3A1337&amp;tr=udp%3A%2F%2Ftracker.coppersurfer.tk%3A6969&amp;tr=udp%3A%2F%2Fexodus.desync.com%3A6969","seeders":1,"leechers":1,"uploader":"juggs99","files":3,"time":1363460633,"description":"Source : NGB (Thanks)\n &lt;a href=&quot;\nhttp://www.imdb.com/title/tt1819601/&quot; rel=&quot;nofollow&quot; target=&quot;_NEW&quot;&gt;\nhttp://www.imdb.com/title/tt1819601/&lt;/a&gt;\n\nFormat : AVI\nFormat/Info : Audio Video Interleave\nFile size : 700 MiB\nDuration : 1h 28mn\nOverall bit rate : 1 106 Kbps\nWriting library : VirtualDub build 32842/release\n\nVideo\nID : 0\nFormat : MPEG-4 Visual\nFormat profile : Advanced Simple@L5\nFormat settings, BVOP : 2\nFormat settings, QPel : No\nFormat settings, GMC : No warppoints\nFormat settings, Matrix : Default (H.263)\nMuxing mode : Packed bitstream\nCodec ID : XVID\nCodec ID/Hint : XviD\nDuration : 1h 28mn\nBit rate : 968 Kbps\nWidth : 640 pixels\nHeight : 256 pixels\nDisplay aspect ratio : 2.500\nFrame rate : 23.976 fps\nColor space : YUV\nChroma subsampling : 4:2:0\nBit depth : 8 bits\nScan type : Progressive\nCompression mode : Lossy\nBits/(Pixel*Frame) : 0.247\nStream size : 613 MiB (88%)\nWriting library : XviD 64\n\nAudio\nID : 1\nFormat : MPEG Audio\nFormat version : Version 1\nFormat profile : Layer 3\nCodec ID : 55\nCodec ID/Hint : MP3\nDuration : 1h 28mn\nBit rate mode : Constant\nBit rate : 128 Kbps\nChannel(s) : 2 channels\nSampling rate : 44.1 KHz\nCompression mode : Lossy\nStream size : 81.0 MiB (12%)\nAlignment : Split accross interleaves\nInterleave, duration : 42 ms (1.00 video frame)\nInterleave, preload duration : 500 ms\nWriting library : LAME3.99r\nEncoding settings : -m s -V 4 -q 3 -lowpass 17 -b 128\n\nPlot\nA consumer affair rep who works from her apartment decides to play hooky one day, and spends her time calling random people, looking for new connections.\n\n &lt;a href=&quot;\nhttp://www.shotpix.com/images/42659210547036973722.png&quot; rel=&quot;nofollow&quot; target=&quot;_NEW&quot;&gt;\nhttp://www.shotpix.com/images/42659210547036973722.png&lt;/a&gt; &lt;a href=&quot;\nhttp://www.shotpix.com/images/08375371112313894044.png&quot; rel=&quot;nofollow&quot; target=&quot;_NEW&quot;&gt;\nhttp://www.shotpix.com/images/08375371112313894044.png&lt;/a&gt; &lt;a href=&quot;\nhttp://www.shotpix.com/images/50244554771302109313.png&quot; rel=&quot;nofollow&quot; target=&quot;_NEW&quot;&gt;\nhttp://www.shotpix.com/images/50244554771302109313.png&lt;/a&gt;","torrent":{"xt":"urn:btih:6d867731c6516337fce3e70c2bb273e2f78944b1","amp;dn":"Miss+Dial+2013+WEBRip+XviD+juggs","amp;tr":["udp%3A%2F%2Ftracker.openbittorrent.com%3A80","udp%3A%2F%2Fopen.demonii.com%3A1337","udp%3A%2F%2Ftracker.coppersurfer.tk%3A6969","udp%3A%2F%2Fexodus.desync.com%3A6969"],"infoHash":"6d867731c6516337fce3e70c2bb273e2f78944b1","infoHashBuffer":{"type":"Buffer","data":[109,134,119,49,198,81,99,55,252,227,231,12,43,178,115,226,247,137,68,177]},"announce":[],"urlList":[]}}